<svg xmlns="http://www.w3.org/2000/svg" viewBox="0 0 2047.4500000000003 972" width="2047.4500000000003" height="972" style="--bg:#FFFFFF;--fg:#1B5E20;--line:#4CAF50;--accent:#2E7D32;--muted:#81C784;--surface:#E8F5E9;--border:#66BB6A;background:var(--bg)">
<style>
  @import url('https://fonts.googleapis.com/css2?family=Inter:wght@400;500;600;700&amp;display=swap');
  text { font-family: 'Inter', system-ui, sans-serif; }
  svg {
    /* Derived from --bg and --fg (overridable via --line, --accent, etc.) */
    --_text:          var(--fg);
    --_text-sec:      var(--muted, color-mix(in srgb, var(--fg) 60%, var(--bg)));
    --_text-muted:    var(--muted, color-mix(in srgb, var(--fg) 40%, var(--bg)));
    --_text-faint:    color-mix(in srgb, var(--fg) 25%, var(--bg));
    --_line:          var(--line, color-mix(in srgb, var(--fg) 30%, var(--bg)));
    --_arrow:         var(--accent, color-mix(in srgb, var(--fg) 50%, var(--bg)));
    --_node-fill:     var(--surface, color-mix(in srgb, var(--fg) 3%, var(--bg)));
    --_node-stroke:   var(--border, color-mix(in srgb, var(--fg) 20%, var(--bg)));
    --_group-fill:    var(--bg);
    --_group-hdr:     color-mix(in srgb, var(--fg) 5%, var(--bg));
    --_inner-stroke:  color-mix(in srgb, var(--fg) 12%, var(--bg));
    --_key-badge:     color-mix(in srgb, var(--fg) 10%, var(--bg));
  }
</style>
<defs>
  <marker id="arrowhead" markerWidth="8" markerHeight="4.8" refX="8" refY="2.4" orient="auto">
    <polygon points="0 0, 8 2.4, 0 4.8" fill="var(--_arrow)" />
  </marker>
  <marker id="arrowhead-start" markerWidth="8" markerHeight="4.8" refX="0" refY="2.4" orient="auto-start-reverse">
    <polygon points="8 0, 0 2.4, 8 4.8" fill="var(--_arrow)" />
  </marker>
</defs>
<rect x="40" y="196" width="845.8000000000002" height="736" rx="0" ry="0" fill="var(--_group-fill)" stroke="var(--_node-stroke)" stroke-width="1" />
<rect x="40" y="196" width="845.8000000000002" height="28" rx="0" ry="0" fill="var(--_group-hdr)" stroke="var(--_node-stroke)" stroke-width="1" />
<text x="52" y="210" dy="0.35em" font-size="12" font-weight="600" fill="var(--_text-sec)">&quot;Streamlit UI Layer&quot;</text>
<rect x="1669.8000000000004" y="352" width="302.28749999999997" height="580" rx="0" ry="0" fill="var(--_group-fill)" stroke="var(--_node-stroke)" stroke-width="1" />
<rect x="1669.8000000000004" y="352" width="302.28749999999997" height="28" rx="0" ry="0" fill="var(--_group-hdr)" stroke="var(--_node-stroke)" stroke-width="1" />
<text x="1681.8000000000004" y="366" dy="0.35em" font-size="12" font-weight="600" fill="var(--_text-sec)">&quot;Simulation Engine&quot;</text>
<rect x="1302.1000000000004" y="40" width="347.6999999999999" height="736" rx="0" ry="0" fill="var(--_group-fill)" stroke="var(--_node-stroke)" stroke-width="1" />
<rect x="1302.1000000000004" y="40" width="347.6999999999999" height="28" rx="0" ry="0" fill="var(--_group-hdr)" stroke="var(--_node-stroke)" stroke-width="1" />
<text x="1314.1000000000004" y="54" dy="0.35em" font-size="12" font-weight="600" fill="var(--_text-sec)">&quot;Climate &amp; Temperature&quot;</text>
<rect x="905.8000000000003" y="40" width="376.29999999999995" height="580" rx="0" ry="0" fill="var(--_group-fill)" stroke="var(--_node-stroke)" stroke-width="1" />
<rect x="905.8000000000003" y="40" width="376.29999999999995" height="28" rx="0" ry="0" fill="var(--_group-hdr)" stroke="var(--_node-stroke)" stroke-width="1" />
<text x="917.8000000000003" y="54" dy="0.35em" font-size="12" font-weight="600" fill="var(--_text-sec)">&quot;Data &amp; Parameters&quot;</text>
<polyline points="472.9000000000001,288 472.9000000000001,308 462.9000000000001,308 462.9000000000001,408" fill="none" stroke="var(--_line)" stroke-width="0.75" marker-end="url(#arrowhead)" />
<polyline points="472.9000000000001,288 472.9000000000001,308 540.8875,308 540.8875,426 1691.8000000000004,426" fill="none" stroke="var(--_line)" stroke-width="0.75" marker-end="url(#arrowhead)" />
<polyline points="1818.6250000000005,444 1818.6250000000005,464 1833.9875000000004,464 1833.9875000000004,720" fill="none" stroke="var(--_line)" stroke-width="0.75" marker-end="url(#arrowhead)" />
<polyline points="1818.6250000000005,444 1818.6250000000005,464 1813.9875000000004,464 1813.9875000000004,582 1627.8000000000002,582" fill="none" stroke="var(--_line)" stroke-width="0.75" marker-end="url(#arrowhead)" />
<polyline points="1833.9875000000004,756 1833.9875000000004,876" fill="none" stroke="var(--_line)" stroke-width="0.75" marker-end="url(#arrowhead)" />
<polyline points="1475.9500000000003,600 1475.9500000000003,620 1459.8625000000002,620 1459.8625000000002,720" fill="none" stroke="var(--_line)" stroke-width="0.75" marker-end="url(#arrowhead)" />
<polyline points="1475.9500000000003,600 1475.9500000000003,620 1552.8750000000002,620 1552.8750000000002,738 1717.8875000000005,738" fill="none" stroke="var(--_line)" stroke-width="0.75" marker-end="url(#arrowhead)" />
<polyline points="1818.6250000000005,444 1818.6250000000005,464 1744.2125000000003,464 1744.2125000000003,582 1220.7750000000003,582" fill="none" stroke="var(--_line)" stroke-width="0.75" marker-end="url(#arrowhead)" />
<polyline points="1093.9500000000003,600 1093.9500000000003,640 415.36249999999995,640 415.36249999999995,720" fill="none" stroke="var(--_line)" stroke-width="0.75" marker-end="url(#arrowhead)" />
<polyline points="415.36249999999995,756 415.36249999999995,776 178.0999999999999,776 178.0999999999999,876" fill="none" stroke="var(--_line)" stroke-width="0.75" marker-end="url(#arrowhead)" />
<polyline points="415.36249999999995,756 415.36249999999995,776 420,776 420,876" fill="none" stroke="var(--_line)" stroke-width="0.75" marker-end="url(#arrowhead)" />
<polyline points="415.36249999999995,756 415.36249999999995,776 704.8000000000002,776 704.8000000000002,876" fill="none" stroke="var(--_line)" stroke-width="0.75" marker-end="url(#arrowhead)" />
<polyline points="1093.95,132 1093.95,252" fill="none" stroke="var(--_line)" stroke-width="0.75" marker-end="url(#arrowhead)" />
<polyline points="1475.9500000000003,132 1475.9500000000003,270 1238.65,270" fill="none" stroke="var(--_line)" stroke-width="0.75" marker-end="url(#arrowhead)" />
<polyline points="1093.95,288 1093.95,426 1691.8000000000004,426" fill="none" stroke="var(--_line)" stroke-width="0.75" marker-end="url(#arrowhead)" />
<rect x="342.5000000000001" y="252" width="260.8" height="36" rx="0" ry="0" fill="var(--_node-fill)" stroke="var(--_node-stroke)" stroke-width="0.75" />
<rect x="328.92500000000007" y="408" width="267.95000000000005" height="36" rx="0" ry="0" fill="var(--_node-fill)" stroke="var(--_node-stroke)" stroke-width="0.75" />
<rect x="288.53749999999997" y="720" width="253.65" height="36" rx="0" ry="0" fill="var(--_node-fill)" stroke="var(--_node-stroke)" stroke-width="0.75" />
<rect x="61.9999999999999" y="876" width="232.20000000000002" height="36" rx="0" ry="0" fill="var(--_node-fill)" stroke="var(--_node-stroke)" stroke-width="0.75" />
<rect x="318.2" y="876" width="203.60000000000002" height="36" rx="0" ry="0" fill="var(--_node-fill)" stroke="var(--_node-stroke)" stroke-width="0.75" />
<rect x="545.8000000000002" y="876" width="318" height="36" rx="0" ry="0" fill="var(--_node-fill)" stroke="var(--_node-stroke)" stroke-width="0.75" />
<rect x="1691.8000000000004" y="408" width="253.65" height="36" rx="0" ry="0" fill="var(--_node-fill)" stroke="var(--_node-stroke)" stroke-width="0.75" />
<rect x="1717.8875000000005" y="720" width="232.20000000000002" height="36" rx="0" ry="0" fill="var(--_node-fill)" stroke="var(--_node-stroke)" stroke-width="0.75" />
<rect x="1728.6125000000004" y="876" width="210.75000000000003" height="36" rx="0" ry="0" fill="var(--_node-fill)" stroke="var(--_node-stroke)" stroke-width="0.75" />
<rect x="1340.1875000000002" y="720" width="239.35000000000002" height="36" rx="0" ry="0" fill="var(--_node-fill)" stroke="var(--_node-stroke)" stroke-width="0.75" />
<rect x="1324.1000000000004" y="564" width="303.70000000000005" height="36" rx="0" ry="0" fill="var(--_node-fill)" stroke="var(--_node-stroke)" stroke-width="0.75" />
<rect x="1349.1250000000002" y="96" width="253.65" height="36" rx="0" ry="0" fill="var(--_node-fill)" stroke="var(--_node-stroke)" stroke-width="0.75" />
<rect x="927.8000000000001" y="96" width="332.3" height="36" rx="0" ry="0" fill="var(--_node-fill)" stroke="var(--_node-stroke)" stroke-width="0.75" />
<rect x="949.25" y="252" width="289.40000000000003" height="36" rx="0" ry="0" fill="var(--_node-fill)" stroke="var(--_node-stroke)" stroke-width="0.75" />
<rect x="967.1250000000002" y="564" width="253.65" height="36" rx="0" ry="0" fill="var(--_node-fill)" stroke="var(--_node-stroke)" stroke-width="0.75" />
<text x="472.9000000000001" y="270" text-anchor="middle" dy="0.35em" font-size="13" font-weight="500" fill="var(--_text)">&quot;app.py — Entry Point &amp; Caching&quot;</text>
<text x="462.9000000000001" y="426" text-anchor="middle" dy="0.35em" font-size="13" font-weight="500" fill="var(--_text)">&quot;sidebar.py — Parameter Controls&quot;</text>
<text x="415.36249999999995" y="738" text-anchor="middle" dy="0.35em" font-size="13" font-weight="500" fill="var(--_text)">&quot;results.py — Metrics &amp; Tables&quot;</text>
<text x="178.0999999999999" y="894" text-anchor="middle" dy="0.35em" font-size="13" font-weight="500" fill="var(--_text)">&quot;charts.py — Plotly Figures&quot;</text>
<text x="420" y="894" text-anchor="middle" dy="0.35em" font-size="13" font-weight="500" fill="var(--_text)">&quot;export.py — CSV / JSON&quot;</text>
<text x="704.8000000000002" y="894" text-anchor="middle" dy="0.35em" font-size="13" font-weight="500" fill="var(--_text)">&quot;methodology.py — Equations &amp; Citations&quot;</text>
<text x="1818.6250000000005" y="426" text-anchor="middle" dy="0.35em" font-size="13" font-weight="500" fill="var(--_text)">&quot;engine.py — Euler Integration&quot;</text>
<text x="1833.9875000000004" y="738" text-anchor="middle" dy="0.35em" font-size="13" font-weight="500" fill="var(--_text)">&quot;growth.py — Monod + Steele&quot;</text>
<text x="1833.9875000000004" y="894" text-anchor="middle" dy="0.35em" font-size="13" font-weight="500" fill="var(--_text)">&quot;light.py — Beer-Lambert&quot;</text>
<text x="1459.8625000000002" y="738" text-anchor="middle" dy="0.35em" font-size="13" font-weight="500" fill="var(--_text)">&quot;temperature.py — CTMI Model&quot;</text>
<text x="1475.9500000000003" y="582" text-anchor="middle" dy="0.35em" font-size="13" font-weight="500" fill="var(--_text)">&quot;growth_modifier.py — Day/Night Split&quot;</text>
<text x="1475.9500000000003" y="114" text-anchor="middle" dy="0.35em" font-size="13" font-weight="500" fill="var(--_text)">&quot;surat.yaml — 12 Month Profile&quot;</text>
<text x="1093.95" y="114" text-anchor="middle" dy="0.35em" font-size="13" font-weight="500" fill="var(--_text)">&quot;species_params.yaml — Chlorella vulgaris&quot;</text>
<text x="1093.95" y="270" text-anchor="middle" dy="0.35em" font-size="13" font-weight="500" fill="var(--_text)">&quot;parameters.py — Frozen Dataclasses&quot;</text>
<text x="1093.9500000000003" y="582" text-anchor="middle" dy="0.35em" font-size="13" font-weight="500" fill="var(--_text)">&quot;results.py — SimulationResult&quot;</text>
</svg>